#!OML:ASF F:\VICON\USERDATA\INSTALL\rory3\rory3.ASF
:FULLY-SPECIFIED
:DEGREES
18
root 0.3959962437604886 17.494597415310512 -13.81598710970476 8.345186075124637 -1.1024299037342695 -2.5159087339606714
lfemur -15.770607996205902 8.283733012135679 -17.992602878379984
ltibia 21.82580750812798
lfoot -11.830800410928177 6.775334274410479
ltoes -8.461706873126673
rfemur -16.035607747920906 -3.3000159180863435 21.27060846469875
rtibia 22.552507661744706
rfoot -14.722500015975331 -2.467490697094144
rtoes 2.1439143864492918
lowerback -0.9918999524675804 -0.46374193471314973 1.4379147724293508
upperback 3.4336528600606826 -0.7361194314543091 1.9887035582450074
thorax 4.1004429823337905 -0.355798389257251 1.2110105713008323
lowerneck -14.534399983083153 0.6643759128330535 -2.106529833755754
upperneck 30.56959308375437 1.446755957298779 0.3228815808381999
head 12.523292827928735 0.4334521615790617 0.7018319940900851
lclavicle 3.882576179839017e-16 -1.4342433103731716e-15
lhumerus -19.119103895151937 -2.330913551736995 84.56509978380551
lradius 25.74559640122319
lwrist 8.754837074668576
lhand -24.18450631262951 -3.028574670783303
lfingers 7.12502
lthumb 2.299153639127252 26.938785141267317
rclavicle 3.882576179839017e-16 -1.4342433103731716e-15
rhumerus -18.261203528292597 -13.74489538502232 -78.6408000729481
rradius 28.57160151871376
rwrist 27.12280180432641
rhand -19.78090632795078 -26.8265949859106
rfingers 7.12502
rthumb 6.5513137344806935 -56.70529521854099
19
root 0.4085463792545295 17.492797401402473 -13.818186785217122 8.349036176216403 -1.1274097189318684 -2.539528278940942
lfemur -15.834607213774538 8.331072633094633 -18.01960268363524
ltibia 21.925207986702965
lfoot -11.870300349312096 6.767824290420635
ltoes -8.53658666058296
rfemur -16.082407974576466 -3.255906163796312 21.251408658417656
rtibia 22.613907940195418
rfoot -14.735000000861868 -2.50839061859131
rtoes 2.11796439660905
lowerback -0.934068502944891 -0.4626999324614698 1.3807853773855456
upperback 3.4636725294981936 -0.7339374937658494 2.0385424153586666
thorax 4.100272873311078 -0.3575493500256069 1.294999093860285
lowerneck -14.525100017331543 0.6702077801954988 -2.04495040004106
upperneck 30.401492731739843 1.4500759113397312 0.27568414134295977
head 12.453593031542663 0.43786400437761336 0.6723085927456853
lclavicle 3.8825762234649906e-16 -1.4342433448245548e-15
lhumerus -18.771904368209636 -2.353333641947043 84.23900027005377
lradius 25.599196769308158
lwrist 8.42767742361363
lhand -24.39820529964844 -3.4496431404250427
lfingers 7.12502
lthumb 2.0927545969345447 26.519886950238043
rclavicle 3.8825762234649906e-16 -1.4342433448245548e-15
rhumerus -18.07860374991717 -13.123696254878833 -78.82449986037655
rradius 29.14850088388566
rwrist 26.52550303189627
rhand -20.02220539195274 -26.79749509117162
rfingers 7.12502
rthumb 6.318384488878793 -56.68329524658565
20
root 0.42181147679575426 17.488497446168083 -13.82588772859877 8.366106103586658 -1.2043291502110842 -2.6063469484886443
lfemur -16.015806776867045 8.357392413497674 -18.00360279101629
ltibia 22.202708167052595
lfoot -11.939700258504276 6.848644118697461
ltoes -8.558576715338454
rfemur -16.225208402080717 -3.0843576034638236 21.273108441108718
rtibia 22.778007713418113
rfoot -14.72790000947427 -2.6267604079214038
rtoes 1.9934645797693973
lowerback -0.81336097320494 -0.44404322721646494 1.3626955046403917
upperback 3.5083721844684446 -0.7080817922659768 2.0874812809331575
thorax 4.0788831125293505 -0.346300660006753 1.3576380195530475
lowerneck -14.573499841318297 0.6584990440051521 -1.9969708148546634
upperneck 30.24359295560148 1.418676330962636 0.27475314777910403
head 12.400293013664895 0.43096325007893865 0.658191870719529
lclavicle 3.882576224943878e-16 -1.4342433448245548e-15
lhumerus -18.460004530729805 -2.144193791675809 83.9515006981753
lradius 25.493096969004483
lwrist 8.439337035564247
lhand -24.394005399461285 -3.5633327680161466
lfingers 7.12502
lthumb 2.096804568386282 26.406087218291503
rclavicle 3.882576224943878e-16 -1.4342433448245548e-15
rhumerus -17.876703829596718 -12.782396687677647 -78.99519967134594
rradius 29.528200442317463
rwrist 26.16100371850453
rhand -20.246404697492764 -26.65739571960819
rfingers 7.12502
rthumb 6.101975290332827 -56.54959585385377
21
root 0.436889447120011 17.479097542833383 -13.845586398026416 8.434445970897233 -1.2190090397665339 -2.7095848869875456
lfemur -16.47260763599637 8.383082252524408 -17.971802996312594
ltibia 22.775907201305216
lfoot -12.055400114610986 6.920593944699782
ltoes -8.757276159182569
rfemur -16.563307310635388 -3.0043182732253824 21.34460762004679
rtibia 23.13090770888389
rfoot -14.761599968197721 -2.711040244977818
rtoes 1.844264785177141
lowerback -0.501655442841388 -0.45027412160743596 1.427334948619743
upperback 3.4808024596795297 -0.7105737234007234 2.1477099079107305
thorax 3.873703336451193 -0.3470576324158237 1.3854675677467312
lowerneck -14.623899654159901 0.6465733187044365 -2.0140807037025725
upperneck 30.13739295769168 1.3967866059705865 0.3035477867799898
head 12.367693045008266 0.4240244946796698 0.668412672459403
lclavicle 3.8825762005428557e-16 -1.4342433247801297e-15
lhumerus -18.311304688980687 -2.0877039401662345 83.77500096321843
lradius 25.489996918914734
lwrist 8.554347292023408
lhand -24.33590564355571 -3.4444231160924246
lfingers 7.12502
lthumb 2.152944313502101 26.524486947472134
rclavicle 3.8825762005428557e-16 -1.4342433247801297e-15
rhumerus -17.79160388304929 -12.55839691042032 -79.13389950113607
rradius 29.81710008298274
rwrist 25.838504333557324
rhand -20.35770433759243 -26.72169545061396
rfingers 7.12502
rthumb 5.994465617889114 -56.61689556304395
22
root 0.45190542154688673 17.45989769693143 -13.888487693841537 8.533675451357006 -1.2244789970839167 -2.8535320189850633
lfemur -17.33090694425264 8.56526081756674 -17.92720333083924
ltibia 23.865006925789398
lfoot -12.32569977927814 6.91509396138694
ltoes -9.04266570984478
rfemur -17.21020692247194 -2.861939270922144 21.453606392853303
rtibia 23.850307134195013
rfoot -14.874999825409809 -2.8388899990803216
rtoes 1.5574351512163314
lowerback 0.11245605491074961 -0.4773956714924348 1.5481738158938634
upperback 3.4836823620633943 -0.7333314412505432 2.221158176651909
thorax 3.529154158494443 -0.3569173654772549 1.3970073640909257
lowerneck -14.672399472406772 0.6419484219855962 -2.119989811824909
upperneck 29.860393329050652 1.40755647576025 0.3366114187743003
head 12.264793441829951 0.4239774963943976 0.6990070607015184
lclavicle 3.8825761413889645e-16 -1.4342433197690255e-15
lhumerus -18.239504699781563 -1.9933640866389553 83.63900117112095
lradius 25.6086967271732
lwrist 8.487647425350904
lhand -24.426705274924988 -3.5114327481549914
lfingers 7.12502
lthumb 2.0652348240615326 26.458287146978986
rclavicle 3.8825761413889645e-16 -1.4342433197690255e-15
rhumerus -17.620504037220133 -12.477797071071507 -79.25539937908952
rradius 29.932899940116002
rwrist 25.71430455390493
rhand -20.51880385429572 -26.731195349657554
rfingers 7.12502
rthumb 5.83896620584898 -56.63079550980487
23
root 0.4662684407318168 17.4225980231379 -13.974886290809089 8.864545232725867 -1.3339381923407667 -2.9603898935076844
lfemur -19.042505342862604 8.935727898015575 -18.00450279174572
ltibia 25.759905235108814
lfoot -12.699299328963743 6.89071410363175
ltoes -9.540354770811659
rfemur -18.713906810590537 -2.540591845276132 21.51950564136299
rtibia 25.379905462325954
rfoot -15.154399490021829 -3.0754195425224635
rtoes 1.0580459389547903
lowerback 1.1469576538294124 -0.46461490858654386 1.6037734218788737
upperback 3.486692405561289 -0.686145087924783 2.285706701087913
thorax 2.9480450328168732 -0.334631995119785 1.441016621309445
lowerneck -14.586999790099794 0.6569770810960893 -2.106289861264022
upperneck 29.062794203572164 1.4587257930079711 0.19032316362522345
head 11.930294081073669 0.4391019618099492 0.6425951805314434
lclavicle 3.882576138431264e-16 -1.4342433444069306e-15
lhumerus -18.20960484421754 -1.9913239799219218 83.48590140758662
lradius 25.957896151495042
lwrist 9.396696293543425
lhand -24.339405667609462 -3.2580239038908534
lfingers 7.12502
lthumb 2.149584312331748 26.7108863163618
rclavicle 3.882576138431264e-16 -1.4342433444069306e-15
rhumerus -17.549904360894477 -12.400897146780395 -79.26499935971806
rradius 30.130199698832325
rwrist 25.621104736017575
rhand -20.888002607351666 -26.442996631551203
rfingers 7.12502
rthumb 5.482477395861508 -56.35209670696487
24
root 0.4788475813090314 17.356298612234678 -14.115787496785499 9.644934655634238 -1.5339667161197394 -3.0928072579292123
lfemur -21.936804091438567 9.416844083512672 -18.16760165786641
ltibia 28.56420404957546
lfoot -13.344398485531826 6.94654393632666
ltoes -9.858324072424901
rfemur -21.48780554400006 -2.141065033399396 21.651004123437602
rtibia 27.94100439591391
rfoot -15.679298889752795 -3.410268917129389
rtoes 0.4254308953162278
lowerback 2.594536666831856 -0.42636147101997346 1.592733503881974
upperback 3.5125721622983983 -0.5908882914835369 2.3590849894100816
thorax 2.160786441451717 -0.2907571680260073 1.5337150386653973
lowerneck -14.439300330406821 0.6891113497669713 -2.053940311630434
upperneck 27.546795134569415 1.5158450184158798 0.025552955780628772
head 11.312795460636139 0.4681499348670556 0.5697496041041183
lclavicle 3.882576127339864e-16 -1.4342433277032688e-15
lhumerus -18.394704510131554 -2.246143600218891 83.22730180276032
lradius 26.570294958852944
lwrist 10.775905175041725
lhand -24.499604856806403 -3.1671641395041945
lfingers 7.12502
lthumb 1.9948651254001772 26.803285715155283
rclavicle 3.882576127339864e-16 -1.4342433277032688e-15
rhumerus -17.649104185980804 -12.159297520690632 -79.09479955917743
rradius 30.352999443236232
rwrist 25.96200404296136
rhand -21.44940072217418 -26.148397973693477
rfingers 7.12502
rthumb 4.940439274074786 -56.07079794046657
